G04*
G04 #@! TF.GenerationSoftware,Altium Limited,Altium Designer,19.0.5 (141)*
G04*
G04 Layer_Color=8421504*
%FSLAX44Y44*%
%MOMM*%
G71*
G01*
G75*
%ADD14R,5.0800X2.2860*%
%ADD15R,5.0800X2.4130*%
%ADD16R,2.2860X5.0800*%
%ADD17R,2.4130X5.0800*%
%ADD18R,0.2000X0.2000*%
%ADD19R,0.7400X0.7400*%
%ADD20R,0.2000X0.3600*%
%ADD21R,0.3600X0.2000*%
%ADD22R,0.9300X1.0100*%
%ADD23R,1.0100X0.9300*%
G36*
X389605Y469540D02*
Y469470D01*
X389595Y469400D01*
X389585Y469340D01*
X389575Y469270D01*
X389565Y469200D01*
X389545Y469140D01*
X389515Y469070D01*
X389495Y469010D01*
X389465Y468950D01*
X389435Y468890D01*
X389395Y468830D01*
X389355Y468780D01*
X389315Y468720D01*
X389275Y468670D01*
X389225Y468620D01*
X389175Y468570D01*
X389125Y468530D01*
X389065Y468490D01*
X389015Y468450D01*
X388955Y468410D01*
X388895Y468380D01*
X388835Y468350D01*
X388775Y468330D01*
X388705Y468300D01*
X388645Y468280D01*
X388575Y468270D01*
X388505Y468260D01*
X388445Y468250D01*
X388375Y468240D01*
X383655D01*
Y451240D01*
X400655D01*
Y468240D01*
X395935D01*
X395865Y468250D01*
X395805Y468260D01*
X395735Y468270D01*
X395665Y468280D01*
X395605Y468300D01*
X395535Y468330D01*
X395475Y468350D01*
X395415Y468380D01*
X395355Y468410D01*
X395295Y468450D01*
X395245Y468490D01*
X395185Y468530D01*
X395135Y468570D01*
X395085Y468620D01*
X395035Y468670D01*
X394995Y468720D01*
X394955Y468780D01*
X394915Y468830D01*
X394875Y468890D01*
X394845Y468950D01*
X394815Y469010D01*
X394795Y469070D01*
X394765Y469140D01*
X394745Y469200D01*
X394735Y469270D01*
X394725Y469340D01*
X394715Y469400D01*
X394705Y469470D01*
Y469540D01*
Y479440D01*
X389605D01*
Y469540D01*
D02*
G37*
G36*
X383655Y431240D02*
X388375D01*
X388445Y431230D01*
X388505Y431220D01*
X388575Y431210D01*
X388645Y431200D01*
X388705Y431180D01*
X388775Y431150D01*
X388835Y431130D01*
X388895Y431100D01*
X388955Y431070D01*
X389015Y431030D01*
X389065Y430990D01*
X389125Y430950D01*
X389175Y430910D01*
X389225Y430860D01*
X389275Y430810D01*
X389315Y430760D01*
X389355Y430700D01*
X389395Y430650D01*
X389435Y430590D01*
X389465Y430530D01*
X389495Y430470D01*
X389515Y430410D01*
X389545Y430340D01*
X389565Y430280D01*
X389575Y430210D01*
X389585Y430140D01*
X389595Y430080D01*
X389605Y430010D01*
Y429940D01*
Y420040D01*
X394705D01*
Y429940D01*
Y430010D01*
X394715Y430080D01*
X394725Y430140D01*
X394735Y430210D01*
X394745Y430280D01*
X394765Y430340D01*
X394795Y430410D01*
X394815Y430470D01*
X394845Y430530D01*
X394875Y430590D01*
X394915Y430650D01*
X394955Y430700D01*
X394995Y430760D01*
X395035Y430810D01*
X395085Y430860D01*
X395135Y430910D01*
X395185Y430950D01*
X395245Y430990D01*
X395295Y431030D01*
X395355Y431070D01*
X395415Y431100D01*
X395475Y431130D01*
X395535Y431150D01*
X395605Y431180D01*
X395665Y431200D01*
X395735Y431210D01*
X395805Y431220D01*
X395865Y431230D01*
X395935Y431240D01*
X400655D01*
Y448240D01*
X383655D01*
Y431240D01*
D02*
G37*
G36*
X236025Y257690D02*
X237125Y256390D01*
X238025D01*
Y259990D01*
X236025D01*
Y257690D01*
D02*
G37*
G36*
X244025Y256390D02*
X244925D01*
X246025Y257690D01*
Y259990D01*
X244025D01*
Y256390D01*
D02*
G37*
G36*
X231525Y255190D02*
X235125D01*
Y256090D01*
X233825Y257190D01*
X231525D01*
Y255190D01*
D02*
G37*
G36*
X246925Y256090D02*
Y255190D01*
X250525D01*
Y257190D01*
X248225D01*
X246925Y256090D01*
D02*
G37*
G36*
X231525Y243190D02*
X233825D01*
X235125Y244290D01*
Y245190D01*
X231525D01*
Y243190D01*
D02*
G37*
G36*
X246925Y244290D02*
X248225Y243190D01*
X250525D01*
Y245190D01*
X246925D01*
Y244290D01*
D02*
G37*
G36*
X236025Y242690D02*
Y240390D01*
X238025D01*
Y243990D01*
X237125D01*
X236025Y242690D01*
D02*
G37*
G36*
X244025Y240390D02*
X246025D01*
Y242690D01*
X244925Y243990D01*
X244025D01*
Y240390D01*
D02*
G37*
G36*
X384525Y61710D02*
Y61640D01*
X384515Y61570D01*
X384505Y61510D01*
X384495Y61440D01*
X384485Y61370D01*
X384465Y61310D01*
X384435Y61240D01*
X384415Y61180D01*
X384385Y61120D01*
X384355Y61060D01*
X384315Y61000D01*
X384275Y60950D01*
X384235Y60890D01*
X384195Y60840D01*
X384145Y60790D01*
X384095Y60740D01*
X384045Y60700D01*
X383985Y60660D01*
X383935Y60620D01*
X383875Y60580D01*
X383815Y60550D01*
X383755Y60520D01*
X383695Y60500D01*
X383625Y60470D01*
X383565Y60450D01*
X383495Y60440D01*
X383425Y60430D01*
X383365Y60420D01*
X383295Y60410D01*
X378575D01*
Y43410D01*
X395575D01*
Y60410D01*
X390855D01*
X390785Y60420D01*
X390725Y60430D01*
X390655Y60440D01*
X390585Y60450D01*
X390525Y60470D01*
X390455Y60500D01*
X390395Y60520D01*
X390335Y60550D01*
X390275Y60580D01*
X390215Y60620D01*
X390165Y60660D01*
X390105Y60700D01*
X390055Y60740D01*
X390005Y60790D01*
X389955Y60840D01*
X389915Y60890D01*
X389875Y60950D01*
X389835Y61000D01*
X389795Y61060D01*
X389765Y61120D01*
X389735Y61180D01*
X389715Y61240D01*
X389685Y61310D01*
X389665Y61370D01*
X389655Y61440D01*
X389645Y61510D01*
X389635Y61570D01*
X389625Y61640D01*
Y61710D01*
Y71610D01*
X384525D01*
Y61710D01*
D02*
G37*
G36*
X378575Y23410D02*
X383295D01*
X383365Y23400D01*
X383425Y23390D01*
X383495Y23380D01*
X383565Y23370D01*
X383625Y23350D01*
X383695Y23320D01*
X383755Y23300D01*
X383815Y23270D01*
X383875Y23240D01*
X383935Y23200D01*
X383985Y23160D01*
X384045Y23120D01*
X384095Y23080D01*
X384145Y23030D01*
X384195Y22980D01*
X384235Y22930D01*
X384275Y22870D01*
X384315Y22820D01*
X384355Y22760D01*
X384385Y22700D01*
X384415Y22640D01*
X384435Y22580D01*
X384465Y22510D01*
X384485Y22450D01*
X384495Y22380D01*
X384505Y22310D01*
X384515Y22250D01*
X384525Y22180D01*
Y22110D01*
Y12210D01*
X389625D01*
Y22110D01*
Y22180D01*
X389635Y22250D01*
X389645Y22310D01*
X389655Y22380D01*
X389665Y22450D01*
X389685Y22510D01*
X389715Y22580D01*
X389735Y22640D01*
X389765Y22700D01*
X389795Y22760D01*
X389835Y22820D01*
X389875Y22870D01*
X389915Y22930D01*
X389955Y22980D01*
X390005Y23030D01*
X390055Y23080D01*
X390105Y23120D01*
X390165Y23160D01*
X390215Y23200D01*
X390275Y23240D01*
X390335Y23270D01*
X390395Y23300D01*
X390455Y23320D01*
X390525Y23350D01*
X390585Y23370D01*
X390655Y23380D01*
X390725Y23390D01*
X390785Y23400D01*
X390855Y23410D01*
X395575D01*
Y40410D01*
X378575D01*
Y23410D01*
D02*
G37*
D14*
X474540Y131445D02*
D03*
X474705Y368465D02*
D03*
X25356Y144780D02*
D03*
Y356235D02*
D03*
D15*
X474540Y175260D02*
D03*
Y87630D02*
D03*
X474705Y412280D02*
D03*
Y324650D02*
D03*
X25356Y100965D02*
D03*
Y188595D02*
D03*
Y312420D02*
D03*
Y400050D02*
D03*
D16*
X236580Y25790D02*
D03*
Y474980D02*
D03*
D17*
X280395Y25790D02*
D03*
X192765D02*
D03*
Y474980D02*
D03*
X280395D02*
D03*
D18*
X237025Y241590D02*
D03*
X245015Y241510D02*
D03*
X249265Y244190D02*
D03*
X249475Y256190D02*
D03*
X245025Y258930D02*
D03*
X237025D02*
D03*
X232575Y256190D02*
D03*
X232525Y244180D02*
D03*
D19*
X241025Y250190D02*
D03*
D20*
Y258190D02*
D03*
Y242190D02*
D03*
D21*
X233325Y248190D02*
D03*
Y252190D02*
D03*
X248715Y248190D02*
D03*
Y252190D02*
D03*
D22*
X236999Y81810D02*
D03*
Y95990D02*
D03*
X237025Y419310D02*
D03*
Y405130D02*
D03*
X362945Y454130D02*
D03*
Y439950D02*
D03*
D23*
X69575Y144780D02*
D03*
X83755D02*
D03*
X412265Y368300D02*
D03*
X426445D02*
D03*
X411735Y131676D02*
D03*
X425915D02*
D03*
X70105Y356870D02*
D03*
X84285D02*
D03*
M02*
