G04*
G04 #@! TF.GenerationSoftware,Altium Limited,Altium Designer,19.0.5 (141)*
G04*
G04 Layer_Color=16711935*
%FSLAX44Y44*%
%MOMM*%
G71*
G01*
G75*
%ADD25R,5.2832X2.6162*%
%ADD27R,2.6162X5.2832*%
%ADD33O,2.4032X1.8032*%
G04:AMPARAMS|DCode=34|XSize=2.3mm|YSize=1.2mm|CornerRadius=0.3mm|HoleSize=0mm|Usage=FLASHONLY|Rotation=112.000|XOffset=0mm|YOffset=0mm|HoleType=Round|Shape=RoundedRectangle|*
%AMROUNDEDRECTD34*
21,1,2.3000,0.6000,0,0,112.0*
21,1,1.7000,1.2000,0,0,112.0*
1,1,0.6000,-0.0403,0.9005*
1,1,0.6000,0.5966,-0.6757*
1,1,0.6000,0.0403,-0.9005*
1,1,0.6000,-0.5966,0.6757*
%
%ADD34ROUNDEDRECTD34*%
%ADD35C,3.2032*%
D25*
X474540Y175260D02*
D03*
Y87630D02*
D03*
X474705Y412280D02*
D03*
Y324650D02*
D03*
X25356Y100965D02*
D03*
Y188595D02*
D03*
Y312420D02*
D03*
Y400050D02*
D03*
D27*
X280395Y25790D02*
D03*
X192765D02*
D03*
Y474980D02*
D03*
X280395D02*
D03*
D33*
X387075Y31910D02*
D03*
Y51910D02*
D03*
X392155Y439740D02*
D03*
Y459740D02*
D03*
D34*
X221975Y272600D02*
D03*
D35*
X473666Y27940D02*
D03*
X27896D02*
D03*
X27665Y469900D02*
D03*
X473435D02*
D03*
M02*
