G04*
G04 #@! TF.GenerationSoftware,Altium Limited,Altium Designer,19.0.5 (141)*
G04*
G04 Layer_Physical_Order=2*
G04 Layer_Color=16711680*
%FSLAX44Y44*%
%MOMM*%
G71*
G01*
G75*
%ADD15R,5.0800X2.4130*%
%ADD17R,2.4130X5.0800*%
G04:AMPARAMS|DCode=34|XSize=2.3mm|YSize=1.2mm|CornerRadius=0.3mm|HoleSize=0mm|Usage=FLASHONLY|Rotation=112.000|XOffset=0mm|YOffset=0mm|HoleType=Round|Shape=RoundedRectangle|*
%AMROUNDEDRECTD34*
21,1,2.3000,0.6000,0,0,112.0*
21,1,1.7000,1.2000,0,0,112.0*
1,1,0.6000,-0.0403,0.9005*
1,1,0.6000,0.5966,-0.6757*
1,1,0.6000,0.0403,-0.9005*
1,1,0.6000,-0.5966,0.6757*
%
%ADD34ROUNDEDRECTD34*%
%ADD39O,2.2000X1.6000*%
%ADD40C,3.0000*%
G36*
X-275Y417115D02*
X21356D01*
Y400050D01*
Y382985D01*
X-275D01*
Y329485D01*
X21356D01*
Y312420D01*
Y295355D01*
X-275D01*
Y205660D01*
X21356D01*
Y188595D01*
Y171530D01*
X-275D01*
Y118030D01*
X21356D01*
Y100965D01*
Y83900D01*
X-275D01*
Y51D01*
X-254Y0D01*
X175700D01*
Y21790D01*
X192765D01*
X209830D01*
Y0D01*
X263330D01*
Y21790D01*
X280395D01*
X297460D01*
Y0D01*
X500105D01*
Y70565D01*
X478540D01*
Y87630D01*
Y104695D01*
X500105D01*
Y158195D01*
X478540D01*
Y175260D01*
Y192325D01*
X500105D01*
Y307585D01*
X478705D01*
Y324650D01*
Y341715D01*
X500105D01*
Y395215D01*
X478705D01*
Y412280D01*
Y429345D01*
X500105D01*
Y500329D01*
X500084Y500380D01*
X297460D01*
Y478980D01*
X263330D01*
Y500380D01*
X209830D01*
Y478980D01*
X175700D01*
Y500380D01*
X-275D01*
Y417115D01*
D02*
G37*
%LPC*%
G36*
X388155Y472720D02*
Y463740D01*
X376740D01*
X377799Y466296D01*
X379883Y469012D01*
X382599Y471096D01*
X385761Y472405D01*
X388155Y472720D01*
D02*
G37*
G36*
X396155D02*
X398548Y472405D01*
X401711Y471096D01*
X404426Y469012D01*
X406510Y466296D01*
X407569Y463740D01*
X396155D01*
Y472720D01*
D02*
G37*
G36*
X175700Y470980D02*
X188765D01*
Y444580D01*
X175700D01*
Y470980D01*
D02*
G37*
G36*
X196765D02*
X209830D01*
Y444580D01*
X196765D01*
Y470980D01*
D02*
G37*
G36*
X263330D02*
X276395D01*
Y444580D01*
X263330D01*
Y470980D01*
D02*
G37*
G36*
X284395D02*
X297460D01*
Y444580D01*
X284395D01*
Y470980D01*
D02*
G37*
G36*
X376740Y455740D02*
X407569D01*
X406510Y453184D01*
X404496Y450559D01*
X404305Y450153D01*
Y449327D01*
X404496Y448921D01*
X406510Y446296D01*
X407820Y443134D01*
X408267Y439740D01*
X407820Y436346D01*
X406510Y433184D01*
X404426Y430468D01*
X401711Y428385D01*
X398548Y427075D01*
X395155Y426628D01*
X389155D01*
X385761Y427075D01*
X382599Y428385D01*
X379883Y430468D01*
X377799Y433184D01*
X376489Y436346D01*
X376043Y439740D01*
X376489Y443134D01*
X377799Y446296D01*
X379813Y448921D01*
X380005Y449327D01*
Y450153D01*
X379813Y450559D01*
X377799Y453184D01*
X376740Y455740D01*
D02*
G37*
G36*
X444305Y429345D02*
X470705D01*
Y416280D01*
X444305D01*
Y429345D01*
D02*
G37*
G36*
X29356Y417115D02*
X55756D01*
Y404050D01*
X29356D01*
Y417115D01*
D02*
G37*
G36*
X444305Y408280D02*
X470705D01*
Y395215D01*
X444305D01*
Y408280D01*
D02*
G37*
G36*
X29356Y396050D02*
X55756D01*
Y382985D01*
X29356D01*
Y396050D01*
D02*
G37*
G36*
X444305Y341715D02*
X470705D01*
Y328650D01*
X444305D01*
Y341715D01*
D02*
G37*
G36*
X29356Y329485D02*
X55756D01*
Y316420D01*
X29356D01*
Y329485D01*
D02*
G37*
G36*
X444305Y320650D02*
X470705D01*
Y307585D01*
X444305D01*
Y320650D01*
D02*
G37*
G36*
X29356Y308420D02*
X55756D01*
Y295355D01*
X29356D01*
Y308420D01*
D02*
G37*
G36*
X220589Y289614D02*
X222695Y289595D01*
X224725Y289032D01*
X226540Y287963D01*
X228016Y286461D01*
X229054Y284628D01*
X230739Y280455D01*
X224185Y277807D01*
X219526Y289339D01*
X220589Y289614D01*
D02*
G37*
G36*
X212108Y286342D02*
X216768Y274810D01*
X210213Y272162D01*
X208528Y276334D01*
X208000Y278374D01*
X208018Y280480D01*
X208581Y282510D01*
X209650Y284325D01*
X211153Y285801D01*
X212108Y286342D01*
D02*
G37*
G36*
X233736Y273038D02*
X235422Y268866D01*
X235949Y266826D01*
X235931Y264720D01*
X235368Y262690D01*
X234299Y260875D01*
X232796Y259398D01*
X231841Y258858D01*
X227182Y270390D01*
X233736Y273038D01*
D02*
G37*
G36*
X219764Y267393D02*
X224424Y255861D01*
X223361Y255586D01*
X221254Y255605D01*
X219224Y256168D01*
X217409Y257237D01*
X215933Y258739D01*
X214896Y260572D01*
X213210Y264745D01*
X219764Y267393D01*
D02*
G37*
G36*
X29356Y205660D02*
X55756D01*
Y192595D01*
X29356D01*
Y205660D01*
D02*
G37*
G36*
X444140Y192325D02*
X470540D01*
Y179260D01*
X444140D01*
Y192325D01*
D02*
G37*
G36*
X29356Y184595D02*
X55756D01*
Y171530D01*
X29356D01*
Y184595D01*
D02*
G37*
G36*
X444140Y171260D02*
X470540D01*
Y158195D01*
X444140D01*
Y171260D01*
D02*
G37*
G36*
X29356Y118030D02*
X55756D01*
Y104965D01*
X29356D01*
Y118030D01*
D02*
G37*
G36*
X444140Y104695D02*
X470540D01*
Y91630D01*
X444140D01*
Y104695D01*
D02*
G37*
G36*
X29356Y96965D02*
X55756D01*
Y83900D01*
X29356D01*
Y96965D01*
D02*
G37*
G36*
X444140Y83630D02*
X470540D01*
Y70565D01*
X444140D01*
Y83630D01*
D02*
G37*
G36*
X384075Y65022D02*
X390075D01*
X393468Y64575D01*
X396631Y63266D01*
X399346Y61182D01*
X401430Y58466D01*
X402740Y55304D01*
X403187Y51910D01*
X402740Y48516D01*
X401430Y45354D01*
X399416Y42729D01*
X399225Y42323D01*
Y41497D01*
X399416Y41091D01*
X401430Y38466D01*
X402489Y35910D01*
X387075D01*
X371660D01*
X372719Y38466D01*
X374733Y41091D01*
X374925Y41497D01*
Y42323D01*
X374733Y42729D01*
X372719Y45354D01*
X371409Y48516D01*
X370963Y51910D01*
X371409Y55304D01*
X372719Y58466D01*
X374803Y61182D01*
X377519Y63266D01*
X380681Y64575D01*
X384075Y65022D01*
D02*
G37*
G36*
X175700Y56190D02*
X188765D01*
Y29790D01*
X175700D01*
Y56190D01*
D02*
G37*
G36*
X263330D02*
X276395D01*
Y29790D01*
X263330D01*
Y56190D01*
D02*
G37*
G36*
X196765D02*
X209830D01*
Y29790D01*
X196765D01*
Y56190D01*
D02*
G37*
G36*
X284395D02*
X297460D01*
Y29790D01*
X284395D01*
Y56190D01*
D02*
G37*
G36*
X371660Y27910D02*
X383075D01*
Y18930D01*
X380681Y19245D01*
X377519Y20554D01*
X374803Y22638D01*
X372719Y25354D01*
X371660Y27910D01*
D02*
G37*
G36*
X391075D02*
X402489D01*
X401430Y25354D01*
X399346Y22638D01*
X396631Y20554D01*
X393468Y19245D01*
X391075Y18930D01*
Y27910D01*
D02*
G37*
%LPD*%
D15*
X474540Y175260D02*
D03*
Y87630D02*
D03*
X474705Y412280D02*
D03*
Y324650D02*
D03*
X25356Y100965D02*
D03*
Y188595D02*
D03*
Y312420D02*
D03*
Y400050D02*
D03*
D17*
X280395Y25790D02*
D03*
X192765D02*
D03*
Y474980D02*
D03*
X280395D02*
D03*
D34*
X221975Y272600D02*
D03*
D39*
X387075Y31910D02*
D03*
Y51910D02*
D03*
X392155Y439740D02*
D03*
Y459740D02*
D03*
D40*
X473666Y27940D02*
D03*
X27896D02*
D03*
X27665Y469900D02*
D03*
X473435D02*
D03*
M02*
