G04*
G04 #@! TF.GenerationSoftware,Altium Limited,Altium Designer,19.0.5 (141)*
G04*
G04 Layer_Physical_Order=1*
G04 Layer_Color=255*
%FSLAX44Y44*%
%MOMM*%
G71*
G01*
G75*
%ADD10C,0.2000*%
%ADD14R,5.0800X2.2860*%
%ADD15R,5.0800X2.4130*%
%ADD16R,2.2860X5.0800*%
%ADD17R,2.4130X5.0800*%
%ADD18R,0.2000X0.2000*%
%ADD19R,0.7400X0.7400*%
%ADD20R,0.2000X0.3600*%
%ADD21R,0.3600X0.2000*%
%ADD22R,0.9300X1.0100*%
%ADD23R,1.0100X0.9300*%
G04:AMPARAMS|DCode=34|XSize=2.3mm|YSize=1.2mm|CornerRadius=0.3mm|HoleSize=0mm|Usage=FLASHONLY|Rotation=112.000|XOffset=0mm|YOffset=0mm|HoleType=Round|Shape=RoundedRectangle|*
%AMROUNDEDRECTD34*
21,1,2.3000,0.6000,0,0,112.0*
21,1,1.7000,1.2000,0,0,112.0*
1,1,0.6000,-0.0403,0.9005*
1,1,0.6000,0.5966,-0.6757*
1,1,0.6000,0.0403,-0.9005*
1,1,0.6000,-0.5966,0.6757*
%
%ADD34ROUNDEDRECTD34*%
%ADD36C,2.0000*%
%ADD37C,1.0000*%
%ADD38C,0.0900*%
%ADD39O,2.2000X1.6000*%
%ADD40C,3.0000*%
G36*
X385151Y466683D02*
X384129Y466275D01*
X383023Y465915D01*
X381834Y465603D01*
X379205Y465124D01*
X377766Y464956D01*
X374638Y464764D01*
X372948Y464740D01*
Y454740D01*
X374638Y454716D01*
X379205Y454356D01*
X380561Y454140D01*
X383023Y453565D01*
X384129Y453205D01*
X385151Y452797D01*
X386090Y452341D01*
Y467138D01*
X385151Y466683D01*
D02*
G37*
G36*
Y446683D02*
X384129Y446275D01*
X383023Y445915D01*
X381834Y445603D01*
X379205Y445124D01*
X377766Y444956D01*
X375150Y444795D01*
X367564Y444969D01*
Y434930D01*
X367664Y434894D01*
X367964Y434862D01*
X369164Y434809D01*
X372948Y434778D01*
Y434740D01*
X374638Y434716D01*
X379205Y434356D01*
X380561Y434140D01*
X383023Y433565D01*
X384129Y433205D01*
X385151Y432797D01*
X386090Y432341D01*
Y447138D01*
X385151Y446683D01*
D02*
G37*
G36*
X225497Y449411D02*
X225781Y448811D01*
X226032Y447811D01*
X226249Y446410D01*
X226583Y442411D01*
X226833Y433410D01*
X226850Y429610D01*
X246850D01*
X246861Y433410D01*
X247765Y449411D01*
X247979Y449610D01*
X225180D01*
X225497Y449411D01*
D02*
G37*
G36*
X449157Y379567D02*
X448623Y379301D01*
X447732Y379067D01*
X446485Y378863D01*
X444883Y378691D01*
X437937Y378363D01*
X431525Y378300D01*
Y358300D01*
X434909Y358288D01*
X448623Y357510D01*
X449157Y357300D01*
X449335Y357066D01*
Y379865D01*
X449157Y379567D01*
D02*
G37*
G36*
X50725Y344836D02*
X50863Y345222D01*
X51276Y345568D01*
X51965Y345873D01*
X52929Y346138D01*
X54168Y346361D01*
X55682Y346544D01*
X59538Y346789D01*
X64495Y346870D01*
Y366870D01*
X61879Y366878D01*
X50863Y367489D01*
X50725Y367635D01*
Y344836D01*
D02*
G37*
G36*
X255406Y289559D02*
X256353Y288088D01*
X256738Y287377D01*
X257064Y286684D01*
X257331Y286007D01*
X257538Y285348D01*
X257686Y284705D01*
X257775Y284080D01*
X257805Y283471D01*
X259805D01*
X259834Y284080D01*
X259923Y284705D01*
X260071Y285348D01*
X260279Y286007D01*
X260545Y286684D01*
X260871Y287377D01*
X261256Y288088D01*
X262204Y289559D01*
X262767Y290320D01*
X254843D01*
X255406Y289559D01*
D02*
G37*
G36*
X230416Y278972D02*
X233532Y274197D01*
X234294Y272770D01*
X234917Y271427D01*
X235402Y270166D01*
X235748Y268988D01*
X235956Y267893D01*
X236025Y266880D01*
X238025D01*
X238094Y267893D01*
X238302Y268988D01*
X238648Y270166D01*
X239133Y271427D01*
X239756Y272770D01*
X240517Y274197D01*
X242456Y277298D01*
X243633Y278972D01*
X244949Y280730D01*
X229101D01*
X230416Y278972D01*
D02*
G37*
G36*
X223797Y260971D02*
X223989Y261032D01*
X224161Y261051D01*
X224313Y261029D01*
X224444Y260965D01*
X224555Y260859D01*
X224646Y260712D01*
X224717Y260523D01*
X224768Y260292D01*
X224798Y260020D01*
X224808Y259706D01*
X226808Y260155D01*
X226818Y260545D01*
X226848Y260903D01*
X226897Y261228D01*
X226966Y261520D01*
X227055Y261779D01*
X227164Y262006D01*
X227293Y262201D01*
X227441Y262362D01*
X227609Y262491D01*
X227797Y262587D01*
X223797Y260971D01*
D02*
G37*
G36*
X201095Y261863D02*
X203268Y261551D01*
X208848Y260377D01*
X210395Y259907D01*
X211786Y259398D01*
X213020Y258849D01*
X214098Y258261D01*
X215019Y257633D01*
X215784Y256966D01*
X217199Y258380D01*
X216532Y259145D01*
X215904Y260067D01*
X215316Y261144D01*
X214767Y262379D01*
X214258Y263769D01*
X213787Y265317D01*
X212966Y268880D01*
X212614Y270897D01*
X212301Y273070D01*
X201095Y261863D01*
D02*
G37*
G36*
X236025Y257690D02*
X237125Y256390D01*
X238025D01*
Y259990D01*
X236025D01*
Y257690D01*
D02*
G37*
G36*
X244025Y256390D02*
X244925D01*
X246025Y257690D01*
Y259990D01*
X244025D01*
Y256390D01*
D02*
G37*
G36*
X231525Y255190D02*
X235125D01*
Y256090D01*
X233825Y257190D01*
X231525D01*
Y255190D01*
D02*
G37*
G36*
X246925Y256090D02*
Y255190D01*
X250525D01*
Y257190D01*
X248225D01*
X246925Y256090D01*
D02*
G37*
G36*
X263816Y269007D02*
X262642Y263426D01*
X262172Y261879D01*
X261663Y260489D01*
X261114Y259254D01*
X260525Y258177D01*
X259898Y257255D01*
X259231Y256490D01*
X260645Y255076D01*
X261410Y255743D01*
X262331Y256371D01*
X263409Y256959D01*
X264643Y257508D01*
X266034Y258017D01*
X267581Y258487D01*
X271145Y259309D01*
X273162Y259661D01*
X275334Y259974D01*
X264128Y271180D01*
X263816Y269007D01*
D02*
G37*
G36*
X240015Y255480D02*
X239985Y255140D01*
X239935Y254839D01*
X239865Y254580D01*
X239775Y254359D01*
X239665Y254179D01*
X239535Y254039D01*
X239385Y253939D01*
X239215Y253880D01*
X239025Y253860D01*
X243025D01*
X242835Y253880D01*
X242665Y253939D01*
X242515Y254039D01*
X242385Y254179D01*
X242275Y254359D01*
X242185Y254580D01*
X242115Y254839D01*
X242065Y255140D01*
X242035Y255480D01*
X242025Y255860D01*
X240025D01*
X240015Y255480D01*
D02*
G37*
G36*
X236719Y253860D02*
X236897Y253675D01*
X237177Y253344D01*
X237279Y253198D01*
X237355Y253064D01*
X237406Y252943D01*
X237432Y252835D01*
Y252739D01*
X237406Y252657D01*
X237355Y252587D01*
X238628Y253860D01*
X238558Y253809D01*
X238475Y253783D01*
X238380D01*
X238272Y253809D01*
X238151Y253860D01*
X238017Y253936D01*
X237871Y254038D01*
X237712Y254165D01*
X237355Y254496D01*
X236719Y253860D01*
D02*
G37*
G36*
X244510Y254318D02*
X244179Y254038D01*
X244032Y253936D01*
X243899Y253860D01*
X243778Y253809D01*
X243670Y253783D01*
X243574D01*
X243491Y253809D01*
X243421Y253860D01*
X244694Y252587D01*
X244643Y252657D01*
X244618Y252739D01*
Y252835D01*
X244643Y252943D01*
X244694Y253064D01*
X244771Y253198D01*
X244872Y253344D01*
X245000Y253503D01*
X245331Y253860D01*
X244694Y254496D01*
X244510Y254318D01*
D02*
G37*
G36*
X239368Y251210D02*
X239481Y251092D01*
X239677Y250858D01*
X239759Y250742D01*
X239831Y250627D01*
X239892Y250512D01*
X239943Y250398D01*
X239983Y250285D01*
X240009Y250190D01*
X239983Y250095D01*
X239943Y249982D01*
X239892Y249868D01*
X239831Y249753D01*
X239759Y249638D01*
X239677Y249522D01*
X239584Y249405D01*
X239368Y249170D01*
X240004Y248533D01*
X240123Y248647D01*
X240357Y248842D01*
X240473Y248924D01*
X240588Y248996D01*
X240703Y249057D01*
X240816Y249108D01*
X240930Y249149D01*
X241025Y249174D01*
X241120Y249149D01*
X241233Y249108D01*
X241347Y249057D01*
X241461Y248996D01*
X241577Y248924D01*
X241693Y248842D01*
X241809Y248750D01*
X242045Y248533D01*
X242682Y249170D01*
X242568Y249288D01*
X242373Y249522D01*
X242291Y249638D01*
X242219Y249753D01*
X242158Y249868D01*
X242107Y249982D01*
X242066Y250095D01*
X242041Y250190D01*
X242066Y250285D01*
X242107Y250398D01*
X242158Y250512D01*
X242219Y250627D01*
X242291Y250742D01*
X242373Y250858D01*
X242465Y250975D01*
X242682Y251210D01*
X242045Y251847D01*
X241927Y251733D01*
X241693Y251538D01*
X241577Y251456D01*
X241461Y251384D01*
X241347Y251323D01*
X241233Y251272D01*
X241120Y251231D01*
X241025Y251206D01*
X240930Y251231D01*
X240816Y251272D01*
X240703Y251323D01*
X240588Y251384D01*
X240473Y251456D01*
X240357Y251538D01*
X240240Y251630D01*
X240004Y251847D01*
X239368Y251210D01*
D02*
G37*
G36*
X243421Y246551D02*
X243489Y246599D01*
X243569Y246621D01*
X243663Y246618D01*
X243771Y246590D01*
X243891Y246536D01*
X244025Y246456D01*
X244172Y246352D01*
X244333Y246221D01*
X244694Y245884D01*
X245331Y246521D01*
X245149Y246708D01*
X244863Y247042D01*
X244758Y247190D01*
X244679Y247324D01*
X244625Y247444D01*
X244597Y247551D01*
X244594Y247645D01*
X244616Y247726D01*
X244664Y247793D01*
X243421Y246551D01*
D02*
G37*
G36*
X237433Y247726D02*
X237456Y247645D01*
X237453Y247551D01*
X237424Y247444D01*
X237370Y247324D01*
X237291Y247190D01*
X237186Y247042D01*
X237056Y246882D01*
X236719Y246521D01*
X237355Y245884D01*
X237542Y246065D01*
X237877Y246352D01*
X238024Y246456D01*
X238158Y246536D01*
X238279Y246590D01*
X238386Y246618D01*
X238480Y246621D01*
X238561Y246599D01*
X238628Y246551D01*
X237386Y247793D01*
X237433Y247726D01*
D02*
G37*
G36*
X239215Y246531D02*
X239385Y246470D01*
X239535Y246368D01*
X239665Y246226D01*
X239775Y246043D01*
X239865Y245820D01*
X239935Y245556D01*
X239985Y245252D01*
X240015Y244906D01*
X240025Y244520D01*
X242025D01*
X242035Y244906D01*
X242065Y245252D01*
X242115Y245556D01*
X242185Y245820D01*
X242275Y246043D01*
X242385Y246226D01*
X242515Y246368D01*
X242665Y246470D01*
X242835Y246531D01*
X243025Y246551D01*
X239025D01*
X239215Y246531D01*
D02*
G37*
G36*
X231525Y243190D02*
X233825D01*
X235125Y244290D01*
Y245190D01*
X231525D01*
Y243190D01*
D02*
G37*
G36*
X246925Y244290D02*
X248225Y243190D01*
X250525D01*
Y245190D01*
X246925D01*
Y244290D01*
D02*
G37*
G36*
X236025Y242690D02*
Y240390D01*
X238025D01*
Y243990D01*
X237125D01*
X236025Y242690D01*
D02*
G37*
G36*
X244025Y240390D02*
X246025D01*
Y242690D01*
X244925Y243990D01*
X244025D01*
Y240390D01*
D02*
G37*
G36*
X258286Y244755D02*
X258953Y243990D01*
X259580Y243068D01*
X260169Y241991D01*
X260718Y240756D01*
X261227Y239366D01*
X261697Y237818D01*
X262519Y234255D01*
X262871Y232238D01*
X263183Y230065D01*
X274389Y241271D01*
X272216Y241584D01*
X266636Y242758D01*
X265089Y243228D01*
X263698Y243737D01*
X262464Y244286D01*
X261386Y244874D01*
X260465Y245502D01*
X259700Y246169D01*
X258286Y244755D01*
D02*
G37*
G36*
X215019Y242747D02*
X214098Y242119D01*
X213020Y241531D01*
X211786Y240982D01*
X210395Y240473D01*
X208848Y240003D01*
X205285Y239181D01*
X203268Y238829D01*
X201095Y238517D01*
X212301Y227310D01*
X212614Y229483D01*
X213787Y235063D01*
X214258Y236611D01*
X214767Y238001D01*
X215316Y239236D01*
X215904Y240313D01*
X216532Y241235D01*
X217199Y242000D01*
X215784Y243414D01*
X215019Y242747D01*
D02*
G37*
G36*
X235930Y232487D02*
X235722Y231392D01*
X235376Y230214D01*
X234891Y228953D01*
X234268Y227610D01*
X233506Y226183D01*
X231568Y223082D01*
X230391Y221408D01*
X229075Y219650D01*
X244923D01*
X243608Y221408D01*
X240492Y226183D01*
X239730Y227610D01*
X239107Y228953D01*
X238622Y230214D01*
X238276Y231392D01*
X238068Y232487D01*
X237999Y233500D01*
X235999D01*
X235930Y232487D01*
D02*
G37*
G36*
X257775Y215665D02*
X257686Y215040D01*
X257538Y214397D01*
X257331Y213738D01*
X257064Y213061D01*
X256738Y212368D01*
X256353Y211657D01*
X255406Y210186D01*
X254843Y209425D01*
X262767D01*
X262204Y210186D01*
X261256Y211657D01*
X260871Y212368D01*
X260545Y213061D01*
X260279Y213738D01*
X260071Y214397D01*
X259923Y215040D01*
X259834Y215665D01*
X259805Y216274D01*
X257805D01*
X257775Y215665D01*
D02*
G37*
G36*
X50725Y133380D02*
X50863Y133646D01*
X51276Y133884D01*
X51965Y134094D01*
X52929Y134276D01*
X54168Y134430D01*
X57472Y134654D01*
X64495Y134780D01*
Y154780D01*
X61879Y154794D01*
X51965Y155466D01*
X51276Y155676D01*
X50863Y155914D01*
X50725Y156180D01*
Y133380D01*
D02*
G37*
G36*
X448981Y142622D02*
X448414Y142424D01*
X447468Y142248D01*
X446144Y142097D01*
X442361Y141863D01*
X430255Y141676D01*
Y121676D01*
X433849Y121659D01*
X447468Y120877D01*
X448414Y120632D01*
X448981Y120355D01*
X449170Y120045D01*
Y142844D01*
X448981Y142622D01*
D02*
G37*
G36*
X382028Y68131D02*
X381888Y66670D01*
X381655Y65247D01*
X381329Y63862D01*
X380910Y62515D01*
X380398Y61207D01*
X379792Y59938D01*
X379093Y58706D01*
X378301Y57513D01*
X377416Y56359D01*
X396733D01*
X395848Y57513D01*
X395056Y58706D01*
X394357Y59938D01*
X393752Y61207D01*
X393239Y62515D01*
X392820Y63862D01*
X392494Y65247D01*
X392261Y66670D01*
X392121Y68131D01*
X392075Y69631D01*
X382075D01*
X382028Y68131D01*
D02*
G37*
G36*
X226576Y67359D02*
X225688Y51960D01*
X225448Y51360D01*
X225180Y51160D01*
X247979D01*
X247715Y51360D01*
X247479Y51960D01*
X247271Y52959D01*
X247090Y54359D01*
X246813Y58359D01*
X246590Y71160D01*
X226590D01*
X226576Y67359D01*
D02*
G37*
%LPC*%
G36*
X241025Y251053D02*
X241887Y250190D01*
X241025Y249327D01*
X240162Y250190D01*
X241025Y251053D01*
D02*
G37*
%LPD*%
D10*
X500079Y0D02*
X450549D01*
X500079D02*
Y50000D01*
X-301Y25D02*
Y49530D01*
X49699Y0D02*
X-275D01*
X500079Y500380D02*
X450105D01*
X500105Y500355D02*
X500079Y500380D01*
X500105Y450850D02*
Y500355D01*
X-275Y450380D02*
Y500380D01*
X49255D02*
X-275D01*
X245025Y241500D02*
X245015Y241510D01*
X245025Y236030D02*
Y241500D01*
X258805Y206375D02*
Y222250D01*
X245025Y236030D01*
X225808Y269216D02*
X221975Y272600D01*
X225808Y259706D02*
Y269216D01*
X229325Y256190D02*
X225808Y259706D01*
X236999Y213550D02*
Y241450D01*
X237025Y258930D02*
Y286830D01*
X221975Y252190D02*
X202385Y271780D01*
X233325Y252190D02*
X221975D01*
X256265Y248190D02*
X248715D01*
X273100Y231355D02*
X256265Y248190D01*
X248715D02*
X248635D01*
X232575Y256190D02*
X229325D01*
X258805Y278130D02*
X245025Y264350D01*
X258805Y278130D02*
Y293370D01*
X245025Y258930D02*
Y264350D01*
X274045Y269890D02*
X256345Y252190D01*
X221975Y248190D02*
X202385Y228600D01*
X233325Y248190D02*
X221975D01*
X241025Y242570D02*
Y250190D01*
Y258190D01*
X256345Y252190D02*
X248715D01*
D14*
X474540Y131445D02*
D03*
X474705Y368465D02*
D03*
X25356Y144780D02*
D03*
Y356235D02*
D03*
D15*
X474540Y175260D02*
D03*
Y87630D02*
D03*
X474705Y412280D02*
D03*
Y324650D02*
D03*
X25356Y100965D02*
D03*
Y188595D02*
D03*
Y312420D02*
D03*
Y400050D02*
D03*
D16*
X236580Y25790D02*
D03*
Y474980D02*
D03*
D17*
X280395Y25790D02*
D03*
X192765D02*
D03*
Y474980D02*
D03*
X280395D02*
D03*
D18*
X237025Y241590D02*
D03*
X245015Y241510D02*
D03*
X249265Y244190D02*
D03*
X249475Y256190D02*
D03*
X245025Y258930D02*
D03*
X237025D02*
D03*
X232575Y256190D02*
D03*
X232525Y244180D02*
D03*
D19*
X241025Y250190D02*
D03*
D20*
Y258190D02*
D03*
Y242190D02*
D03*
D21*
X233325Y248190D02*
D03*
Y252190D02*
D03*
X248715Y248190D02*
D03*
Y252190D02*
D03*
D22*
X236999Y81810D02*
D03*
Y95990D02*
D03*
X237025Y419310D02*
D03*
Y405130D02*
D03*
X362945Y454130D02*
D03*
Y439950D02*
D03*
D23*
X69575Y144780D02*
D03*
X83755D02*
D03*
X412265Y368300D02*
D03*
X426445D02*
D03*
X411735Y131676D02*
D03*
X425915D02*
D03*
X70105Y356870D02*
D03*
X84285D02*
D03*
D34*
X221975Y272600D02*
D03*
D36*
X64495Y356870D02*
X25356D01*
X118565Y355600D02*
X88475D01*
X202385Y271780D02*
X118565Y355600D01*
X237025Y286830D02*
Y400050D01*
X236999Y100330D02*
Y213550D01*
X236590Y28150D02*
Y76590D01*
X236850Y425450D02*
Y473890D01*
X372050Y132405D02*
X273100Y231355D01*
X406450Y132405D02*
X372050D01*
X473270Y131676D02*
X430255D01*
X474705Y368465D02*
X474540Y368300D01*
X431525D01*
X372455D02*
X274045Y269890D01*
X407395Y368300D02*
X372455D01*
X64495Y144780D02*
X26395D01*
X25125Y146050D01*
X202385Y228600D02*
X118565Y144780D01*
X88475D01*
D37*
X387075Y51910D02*
Y83677D01*
X381217Y89535D01*
X362945Y412220D02*
Y439950D01*
Y412220D02*
X258805Y308080D01*
X392155Y459740D02*
X368555D01*
X362945Y454130D01*
X363245Y439950D02*
X362945D01*
X363455Y439740D02*
X363245Y439950D01*
X392155Y439740D02*
X363455D01*
X381217Y89535D02*
X360935D01*
X258805Y191665D02*
Y206375D01*
X360935Y89535D02*
X258805Y191665D01*
Y293370D02*
Y308080D01*
D38*
X241025Y250190D02*
X235575Y244740D01*
X233602D01*
X233592Y244730D01*
X233075D01*
X232525Y244180D01*
X241025Y250190D02*
X235575Y255640D01*
X233652D01*
X233652Y255640D01*
X233125D01*
X232575Y256190D01*
X246475Y244740D02*
X241025Y250190D01*
X246925Y244740D02*
X246475D01*
X246475Y255640D02*
X241025Y250190D01*
X246925Y255640D02*
X246475D01*
D39*
X387075Y31910D02*
D03*
Y51910D02*
D03*
X392155Y439740D02*
D03*
Y459740D02*
D03*
D40*
X473666Y27940D02*
D03*
X27896D02*
D03*
X27665Y469900D02*
D03*
X473435D02*
D03*
M02*
