G04*
G04 #@! TF.GenerationSoftware,Altium Limited,Altium Designer,19.0.5 (141)*
G04*
G04 Layer_Color=32768*
%FSLAX44Y44*%
%MOMM*%
G71*
G01*
G75*
%ADD13C,0.0500*%
D13*
X399575Y74110D02*
X374575D01*
X399575Y9710D02*
Y74110D01*
Y9710D02*
X374575D01*
Y74110D01*
X404655Y417540D02*
Y481940D01*
X379655D01*
Y417540D02*
Y481940D01*
X404655Y417540D02*
X379655D01*
X597690Y97195D02*
X517340D01*
Y73065D02*
Y97195D01*
Y73065D02*
X446640D01*
Y189825D01*
X517340D02*
X446640D01*
X517340Y165695D02*
Y189825D01*
X597690Y165695D02*
X517340D01*
X597690Y97195D02*
Y165695D01*
X597855Y334215D02*
X517505D01*
Y310085D02*
Y334215D01*
Y310085D02*
X446805D01*
Y426845D01*
X517505D02*
X446805D01*
X517505Y402715D02*
Y426845D01*
X597855Y402715D02*
X517505D01*
X597855Y334215D02*
Y402715D01*
X202330Y-97360D02*
Y-17010D01*
X178200D01*
Y53690D01*
X294960D02*
X178200D01*
X294960Y-17010D02*
Y53690D01*
Y-17010D02*
X270830D01*
Y-97360D02*
Y-17010D01*
Y-97360D02*
X202330D01*
X-17444Y179030D02*
X-97794D01*
X-17444D02*
Y203160D01*
X53256D02*
X-17444D01*
X53256Y86400D02*
Y203160D01*
Y86400D02*
X-17444D01*
Y110530D01*
X-97794D01*
Y179030D01*
X-17444Y390485D02*
X-97794D01*
X-17444D02*
Y414615D01*
X53256D02*
X-17444D01*
X53256Y297855D02*
Y414615D01*
Y297855D02*
X-17444D01*
Y321985D01*
X-97794D01*
Y390485D01*
X270830Y517780D02*
Y598130D01*
X294960Y517780D02*
X270830D01*
X294960Y447080D02*
Y517780D01*
Y447080D02*
X178200D01*
Y517780D01*
X202330D02*
X178200D01*
X202330D02*
Y598130D01*
X270830D02*
X202330D01*
X244149Y74250D02*
X229849D01*
X244149Y103550D02*
X229849D01*
Y74250D02*
Y103550D01*
X244149Y74250D02*
Y103550D01*
X62015Y137630D02*
Y151930D01*
X91315Y137630D02*
Y151930D01*
X62015D01*
X91315Y137630D02*
X62015D01*
X244175Y426870D02*
X229875D01*
X244175Y397570D02*
X229875D01*
X244175D02*
Y426870D01*
X229875Y397570D02*
Y426870D01*
X404705Y361150D02*
Y375450D01*
X434005Y361150D02*
Y375450D01*
X404705D01*
X434005Y361150D02*
X404705D01*
X404175Y124526D02*
Y138826D01*
X433475Y124526D02*
Y138826D01*
X404175D01*
X433475Y124526D02*
X404175D01*
X62545Y349720D02*
Y364020D01*
X91845Y349720D02*
Y364020D01*
X62545D01*
X91845Y349720D02*
X62545D01*
X370095Y461690D02*
X355795D01*
X370095Y432390D02*
X355795D01*
X370095D02*
Y461690D01*
X355795Y432390D02*
Y461690D01*
M02*
