G04*
G04 #@! TF.GenerationSoftware,Altium Limited,Altium Designer,19.0.5 (141)*
G04*
G04 Layer_Color=16711935*
%FSLAX44Y44*%
%MOMM*%
G71*
G01*
G75*
%ADD10C,0.2000*%
%ADD12C,0.1270*%
%ADD41C,0.1000*%
D10*
X366075Y51910D02*
G03*
X366075Y51910I1000J0D01*
G01*
X411155Y439740D02*
G03*
X411155Y439740I1000J0D01*
G01*
X439540Y131445D02*
G03*
X439540Y131445I1000J0D01*
G01*
X439705Y368465D02*
G03*
X439705Y368465I1000J0D01*
G01*
X235580Y59790D02*
G03*
X235580Y59790I1000J0D01*
G01*
X58356Y144780D02*
G03*
X58356Y144780I1000J0D01*
G01*
Y356235D02*
G03*
X58356Y356235I1000J0D01*
G01*
X235580Y440980D02*
G03*
X235580Y440980I1000J0D01*
G01*
D12*
X499940Y179445D02*
Y214445D01*
X514799Y179070D02*
X499940D01*
X514799Y83820D02*
X499940D01*
X595190Y163195D02*
X514799D01*
X595190Y99695D02*
Y163195D01*
Y99695D02*
X514799D01*
Y163195D02*
Y179070D01*
Y99695D02*
Y163195D01*
Y83820D02*
Y99695D01*
X499940Y83820D02*
X452442D01*
Y179070D01*
X499940D02*
X452442D01*
X499940Y83820D02*
Y179070D01*
X500105Y416465D02*
Y451465D01*
X514964Y416090D02*
X500105D01*
X514964Y320840D02*
X500105D01*
X595355Y400215D02*
X514964D01*
X595355Y336715D02*
Y400215D01*
Y336715D02*
X514964D01*
Y400215D02*
Y416090D01*
Y336715D02*
Y400215D01*
Y320840D02*
Y336715D01*
X500105Y320840D02*
X452607D01*
Y416090D01*
X500105D02*
X452607D01*
X500105Y320840D02*
Y416090D01*
X319580Y390D02*
X284580D01*
X284205Y-14469D02*
Y390D01*
X188955Y-14469D02*
Y390D01*
X268330Y-94860D02*
Y-14469D01*
Y-94860D02*
X204830D01*
Y-14469D01*
X284205D02*
X268330D01*
X204830D01*
X188955D01*
Y390D02*
Y47888D01*
X284205D02*
X188955D01*
X284205Y390D02*
Y47888D01*
Y390D02*
X188955D01*
X-44Y61780D02*
Y96780D01*
Y97155D02*
X-14903D01*
X-44Y192405D02*
X-14903D01*
Y113030D02*
X-95294D01*
Y176530D01*
X-14903D02*
X-95294D01*
X-14903Y97155D02*
Y113030D01*
Y176530D01*
Y192405D01*
X47454D02*
X-44D01*
X47454Y97155D02*
Y192405D01*
Y97155D02*
X-44D01*
Y192405D01*
Y273235D02*
Y308235D01*
Y308610D02*
X-14903D01*
X-44Y403860D02*
X-14903D01*
Y324485D02*
X-95294D01*
Y387985D01*
X-14903D02*
X-95294D01*
X-14903Y308610D02*
Y324485D01*
Y387985D01*
Y403860D01*
X47454D02*
X-44D01*
X47454Y308610D02*
Y403860D01*
Y308610D02*
X-44D01*
Y403860D01*
X188580Y500380D02*
X153580D01*
X188955D02*
Y515239D01*
X284205Y500380D02*
Y515239D01*
X204830D02*
Y595630D01*
X268330D02*
X204830D01*
X268330Y515239D02*
Y595630D01*
X204830Y515239D02*
X188955D01*
X268330D02*
X204830D01*
X284205D02*
X268330D01*
X284205Y452882D02*
Y500380D01*
Y452882D02*
X188955D01*
Y500380D01*
X284205D02*
X188955D01*
X241499Y97400D02*
X232499D01*
X241499Y80400D02*
X232499D01*
Y97400D01*
X241499Y80400D02*
Y97400D01*
X85165Y140280D02*
Y149280D01*
X68165Y140280D02*
Y149280D01*
X85165D02*
X68165D01*
X85165Y140280D02*
X68165D01*
X241525Y403720D02*
X232525D01*
X241525Y420720D02*
X232525D01*
X241525Y403720D02*
Y420720D01*
X232525Y403720D02*
Y420720D01*
X427855Y363800D02*
Y372800D01*
X410855Y363800D02*
Y372800D01*
X427855D02*
X410855D01*
X427855Y363800D02*
X410855D01*
X427325Y127176D02*
Y136176D01*
X410325Y127176D02*
Y136176D01*
X427325D02*
X410325D01*
X427325Y127176D02*
X410325D01*
X85695Y352370D02*
Y361370D01*
X68695Y352370D02*
Y361370D01*
X85695D02*
X68695D01*
X85695Y352370D02*
X68695D01*
X367445Y438540D02*
X358445D01*
X367445Y455540D02*
X358445D01*
X367445Y438540D02*
Y455540D01*
X358445Y438540D02*
Y455540D01*
D41*
X397075Y61610D02*
X377075D01*
X397075Y22210D02*
Y61610D01*
Y22210D02*
X377075D01*
Y61610D01*
X402155Y430040D02*
Y469440D01*
X382155D01*
Y430040D02*
Y469440D01*
X402155Y430040D02*
X382155D01*
M02*
