G04*
G04 #@! TF.GenerationSoftware,Altium Limited,Altium Designer,19.0.5 (141)*
G04*
G04 Layer_Color=8388736*
%FSLAX44Y44*%
%MOMM*%
G71*
G01*
G75*
%ADD18R,0.2000X0.2000*%
%ADD24R,5.2832X2.4892*%
%ADD25R,5.2832X2.6162*%
%ADD26R,2.4892X5.2832*%
%ADD27R,2.6162X5.2832*%
%ADD28R,0.8800X0.8800*%
%ADD29R,0.3400X0.5000*%
%ADD30R,0.5000X0.3400*%
%ADD31R,1.1332X1.2132*%
%ADD32R,1.2132X1.1332*%
%ADD33O,2.4032X1.8032*%
G04:AMPARAMS|DCode=34|XSize=2.3mm|YSize=1.2mm|CornerRadius=0.3mm|HoleSize=0mm|Usage=FLASHONLY|Rotation=112.000|XOffset=0mm|YOffset=0mm|HoleType=Round|Shape=RoundedRectangle|*
%AMROUNDEDRECTD34*
21,1,2.3000,0.6000,0,0,112.0*
21,1,1.7000,1.2000,0,0,112.0*
1,1,0.6000,-0.0403,0.9005*
1,1,0.6000,0.5966,-0.6757*
1,1,0.6000,0.0403,-0.9005*
1,1,0.6000,-0.5966,0.6757*
%
%ADD34ROUNDEDRECTD34*%
%ADD35C,3.2032*%
G36*
X246815Y245884D02*
X246708Y245858D01*
X246606Y245816D01*
X246512Y245758D01*
X246428Y245686D01*
X246357Y245603D01*
X246299Y245509D01*
X246257Y245407D01*
X246231Y245300D01*
X246223Y245190D01*
Y244290D01*
X246225Y244261D01*
X246225Y244232D01*
X246229Y244206D01*
X246231Y244180D01*
X246238Y244152D01*
X246243Y244123D01*
X246251Y244098D01*
X246257Y244073D01*
X246268Y244046D01*
X246277Y244018D01*
X246289Y243995D01*
X246299Y243971D01*
X246314Y243946D01*
X246328Y243920D01*
X246343Y243899D01*
X246357Y243877D01*
X246376Y243855D01*
X246393Y243832D01*
X246411Y243813D01*
X246428Y243794D01*
X246450Y243775D01*
X246471Y243754D01*
X247771Y242654D01*
X247792Y242639D01*
X247812Y242622D01*
X247837Y242607D01*
X247861Y242590D01*
X247884Y242578D01*
X247906Y242564D01*
X247933Y242553D01*
X247959Y242540D01*
X247984Y242532D01*
X248008Y242522D01*
X248036Y242515D01*
X248064Y242507D01*
X248090Y242502D01*
X248115Y242496D01*
X248144Y242494D01*
X248173Y242490D01*
X248199Y242490D01*
X248225Y242488D01*
X250525D01*
X250635Y242496D01*
X250742Y242522D01*
X250844Y242564D01*
X250937Y242622D01*
X251021Y242694D01*
X251093Y242777D01*
X251150Y242871D01*
X251192Y242973D01*
X251218Y243080D01*
X251227Y243190D01*
Y245190D01*
X251218Y245300D01*
X251192Y245407D01*
X251150Y245509D01*
X251093Y245603D01*
X251021Y245686D01*
X250937Y245758D01*
X250844Y245816D01*
X250742Y245858D01*
X250635Y245884D01*
X250525Y245892D01*
X246925D01*
X246815Y245884D01*
D02*
G37*
G36*
X243915Y244683D02*
X243808Y244658D01*
X243706Y244616D01*
X243612Y244558D01*
X243528Y244487D01*
X243457Y244403D01*
X243399Y244309D01*
X243357Y244207D01*
X243331Y244100D01*
X243323Y243990D01*
Y240390D01*
X243331Y240280D01*
X243357Y240173D01*
X243399Y240071D01*
X243457Y239977D01*
X243528Y239893D01*
X243612Y239822D01*
X243706Y239764D01*
X243808Y239722D01*
X243915Y239697D01*
X244025Y239688D01*
X246025D01*
X246134Y239697D01*
X246242Y239722D01*
X246343Y239764D01*
X246437Y239822D01*
X246521Y239893D01*
X246593Y239977D01*
X246650Y240071D01*
X246693Y240173D01*
X246718Y240280D01*
X246727Y240390D01*
Y242690D01*
X246725Y242716D01*
X246725Y242742D01*
X246721Y242771D01*
X246718Y242800D01*
X246712Y242825D01*
X246708Y242851D01*
X246699Y242879D01*
X246693Y242907D01*
X246683Y242931D01*
X246675Y242956D01*
X246661Y242982D01*
X246650Y243009D01*
X246637Y243031D01*
X246625Y243054D01*
X246608Y243078D01*
X246593Y243103D01*
X246576Y243122D01*
X246561Y243144D01*
X245461Y244443D01*
X245440Y244464D01*
X245421Y244487D01*
X245401Y244503D01*
X245383Y244522D01*
X245359Y244539D01*
X245337Y244558D01*
X245315Y244572D01*
X245294Y244587D01*
X245268Y244600D01*
X245243Y244616D01*
X245219Y244625D01*
X245196Y244638D01*
X245169Y244647D01*
X245142Y244658D01*
X245116Y244664D01*
X245092Y244672D01*
X245063Y244677D01*
X245035Y244683D01*
X245009Y244686D01*
X244983Y244690D01*
X244954Y244690D01*
X244925Y244692D01*
X244025D01*
X243915Y244683D01*
D02*
G37*
G36*
X231415Y245884D02*
X231308Y245858D01*
X231206Y245816D01*
X231112Y245758D01*
X231028Y245686D01*
X230957Y245603D01*
X230899Y245509D01*
X230857Y245407D01*
X230831Y245300D01*
X230823Y245190D01*
Y243190D01*
X230831Y243080D01*
X230857Y242973D01*
X230899Y242871D01*
X230957Y242777D01*
X231028Y242694D01*
X231112Y242622D01*
X231206Y242564D01*
X231308Y242522D01*
X231415Y242496D01*
X231525Y242488D01*
X233825D01*
X233851Y242490D01*
X233877Y242490D01*
X233905Y242494D01*
X233935Y242496D01*
X233960Y242502D01*
X233986Y242507D01*
X234013Y242515D01*
X234042Y242522D01*
X234066Y242532D01*
X234090Y242540D01*
X234116Y242553D01*
X234144Y242564D01*
X234165Y242578D01*
X234189Y242590D01*
X234213Y242607D01*
X234237Y242622D01*
X234257Y242639D01*
X234278Y242654D01*
X235578Y243754D01*
X235599Y243775D01*
X235621Y243794D01*
X235638Y243813D01*
X235657Y243832D01*
X235674Y243855D01*
X235693Y243877D01*
X235706Y243899D01*
X235722Y243920D01*
X235735Y243946D01*
X235750Y243971D01*
X235760Y243995D01*
X235772Y244018D01*
X235781Y244046D01*
X235793Y244073D01*
X235799Y244098D01*
X235807Y244123D01*
X235811Y244152D01*
X235818Y244180D01*
X235820Y244206D01*
X235824Y244232D01*
X235825Y244261D01*
X235827Y244290D01*
Y245190D01*
X235818Y245300D01*
X235793Y245407D01*
X235750Y245509D01*
X235693Y245603D01*
X235621Y245686D01*
X235537Y245758D01*
X235443Y245816D01*
X235342Y245858D01*
X235235Y245884D01*
X235125Y245892D01*
X231525D01*
X231415Y245884D01*
D02*
G37*
G36*
X237095Y244690D02*
X237066Y244690D01*
X237041Y244686D01*
X237015Y244683D01*
X236986Y244677D01*
X236958Y244672D01*
X236933Y244664D01*
X236908Y244658D01*
X236881Y244647D01*
X236853Y244638D01*
X236830Y244625D01*
X236806Y244616D01*
X236781Y244600D01*
X236755Y244587D01*
X236734Y244572D01*
X236712Y244558D01*
X236690Y244539D01*
X236666Y244522D01*
X236648Y244503D01*
X236628Y244487D01*
X236609Y244464D01*
X236589Y244443D01*
X235489Y243144D01*
X235473Y243122D01*
X235457Y243103D01*
X235441Y243078D01*
X235424Y243054D01*
X235413Y243031D01*
X235399Y243009D01*
X235388Y242982D01*
X235375Y242956D01*
X235367Y242931D01*
X235357Y242907D01*
X235350Y242879D01*
X235341Y242851D01*
X235337Y242825D01*
X235331Y242800D01*
X235329Y242771D01*
X235324Y242742D01*
X235325Y242716D01*
X235323Y242690D01*
Y240390D01*
X235331Y240280D01*
X235357Y240173D01*
X235399Y240071D01*
X235457Y239977D01*
X235528Y239893D01*
X235612Y239822D01*
X235706Y239764D01*
X235808Y239722D01*
X235915Y239697D01*
X236025Y239688D01*
X238025D01*
X238135Y239697D01*
X238242Y239722D01*
X238344Y239764D01*
X238437Y239822D01*
X238521Y239893D01*
X238593Y239977D01*
X238650Y240071D01*
X238692Y240173D01*
X238718Y240280D01*
X238727Y240390D01*
Y243990D01*
X238718Y244100D01*
X238692Y244207D01*
X238650Y244309D01*
X238593Y244403D01*
X238521Y244487D01*
X238437Y244558D01*
X238344Y244616D01*
X238242Y244658D01*
X238135Y244683D01*
X238025Y244692D01*
X237125D01*
X237095Y244690D01*
D02*
G37*
G36*
X243915Y260683D02*
X243808Y260658D01*
X243706Y260616D01*
X243612Y260558D01*
X243528Y260487D01*
X243457Y260403D01*
X243399Y260309D01*
X243357Y260207D01*
X243331Y260100D01*
X243323Y259990D01*
Y256390D01*
X243331Y256280D01*
X243357Y256173D01*
X243399Y256071D01*
X243457Y255977D01*
X243528Y255893D01*
X243612Y255822D01*
X243706Y255764D01*
X243808Y255722D01*
X243915Y255697D01*
X244025Y255688D01*
X244925D01*
X244954Y255690D01*
X244983Y255690D01*
X245009Y255694D01*
X245035Y255697D01*
X245063Y255703D01*
X245092Y255708D01*
X245116Y255716D01*
X245142Y255722D01*
X245169Y255733D01*
X245196Y255742D01*
X245219Y255754D01*
X245243Y255764D01*
X245268Y255780D01*
X245294Y255793D01*
X245315Y255808D01*
X245337Y255822D01*
X245359Y255841D01*
X245383Y255858D01*
X245401Y255877D01*
X245421Y255893D01*
X245440Y255916D01*
X245461Y255936D01*
X246561Y257236D01*
X246576Y257257D01*
X246593Y257277D01*
X246608Y257302D01*
X246625Y257326D01*
X246637Y257349D01*
X246650Y257371D01*
X246661Y257398D01*
X246675Y257424D01*
X246683Y257449D01*
X246693Y257473D01*
X246699Y257501D01*
X246708Y257529D01*
X246712Y257555D01*
X246718Y257580D01*
X246721Y257610D01*
X246725Y257638D01*
X246725Y257664D01*
X246727Y257690D01*
Y259990D01*
X246718Y260100D01*
X246693Y260207D01*
X246650Y260309D01*
X246593Y260403D01*
X246521Y260487D01*
X246437Y260558D01*
X246343Y260616D01*
X246242Y260658D01*
X246134Y260683D01*
X246025Y260692D01*
X244025D01*
X243915Y260683D01*
D02*
G37*
G36*
X248199Y257890D02*
X248173Y257890D01*
X248144Y257886D01*
X248115Y257883D01*
X248090Y257877D01*
X248064Y257873D01*
X248036Y257865D01*
X248008Y257858D01*
X247984Y257848D01*
X247959Y257840D01*
X247933Y257827D01*
X247906Y257816D01*
X247884Y257802D01*
X247861Y257790D01*
X247837Y257773D01*
X247812Y257758D01*
X247792Y257741D01*
X247771Y257726D01*
X246471Y256626D01*
X246450Y256605D01*
X246428Y256586D01*
X246411Y256567D01*
X246393Y256549D01*
X246376Y256525D01*
X246357Y256503D01*
X246343Y256481D01*
X246328Y256460D01*
X246314Y256434D01*
X246299Y256409D01*
X246289Y256385D01*
X246277Y256362D01*
X246268Y256334D01*
X246257Y256307D01*
X246251Y256282D01*
X246243Y256257D01*
X246238Y256228D01*
X246231Y256200D01*
X246229Y256174D01*
X246225Y256148D01*
X246225Y256119D01*
X246222Y256090D01*
Y255190D01*
X246231Y255080D01*
X246257Y254973D01*
X246299Y254871D01*
X246357Y254777D01*
X246428Y254694D01*
X246512Y254622D01*
X246606Y254564D01*
X246708Y254522D01*
X246815Y254496D01*
X246925Y254488D01*
X250525D01*
X250634Y254496D01*
X250742Y254522D01*
X250844Y254564D01*
X250937Y254622D01*
X251021Y254694D01*
X251093Y254777D01*
X251150Y254871D01*
X251192Y254973D01*
X251218Y255080D01*
X251227Y255190D01*
Y257190D01*
X251218Y257300D01*
X251192Y257407D01*
X251150Y257509D01*
X251093Y257603D01*
X251021Y257687D01*
X250937Y257758D01*
X250844Y257816D01*
X250742Y257858D01*
X250634Y257883D01*
X250525Y257892D01*
X248225D01*
X248199Y257890D01*
D02*
G37*
G36*
X231415Y257883D02*
X231308Y257858D01*
X231206Y257816D01*
X231112Y257758D01*
X231028Y257687D01*
X230957Y257603D01*
X230899Y257509D01*
X230857Y257407D01*
X230831Y257300D01*
X230823Y257190D01*
Y255190D01*
X230831Y255080D01*
X230857Y254973D01*
X230899Y254871D01*
X230957Y254777D01*
X231028Y254694D01*
X231112Y254622D01*
X231206Y254564D01*
X231308Y254522D01*
X231415Y254496D01*
X231525Y254488D01*
X235125D01*
X235235Y254496D01*
X235342Y254522D01*
X235443Y254564D01*
X235537Y254622D01*
X235621Y254694D01*
X235693Y254777D01*
X235750Y254871D01*
X235793Y254973D01*
X235818Y255080D01*
X235827Y255190D01*
Y256090D01*
X235825Y256119D01*
X235824Y256148D01*
X235820Y256174D01*
X235818Y256200D01*
X235811Y256228D01*
X235807Y256257D01*
X235799Y256282D01*
X235793Y256307D01*
X235781Y256334D01*
X235772Y256362D01*
X235760Y256385D01*
X235750Y256409D01*
X235735Y256434D01*
X235722Y256460D01*
X235706Y256481D01*
X235693Y256503D01*
X235674Y256525D01*
X235657Y256549D01*
X235638Y256567D01*
X235621Y256586D01*
X235599Y256605D01*
X235578Y256626D01*
X234278Y257726D01*
X234257Y257741D01*
X234237Y257758D01*
X234213Y257773D01*
X234189Y257790D01*
X234165Y257802D01*
X234144Y257816D01*
X234116Y257827D01*
X234090Y257840D01*
X234066Y257848D01*
X234042Y257858D01*
X234013Y257865D01*
X233986Y257873D01*
X233960Y257877D01*
X233935Y257883D01*
X233905Y257886D01*
X233877Y257890D01*
X233851Y257890D01*
X233825Y257892D01*
X231525D01*
X231415Y257883D01*
D02*
G37*
G36*
X235915Y260683D02*
X235808Y260658D01*
X235706Y260616D01*
X235612Y260558D01*
X235528Y260487D01*
X235457Y260403D01*
X235399Y260309D01*
X235357Y260207D01*
X235331Y260100D01*
X235323Y259990D01*
Y257690D01*
X235325Y257664D01*
X235324Y257638D01*
X235329Y257610D01*
X235331Y257580D01*
X235337Y257555D01*
X235341Y257529D01*
X235350Y257501D01*
X235357Y257473D01*
X235367Y257449D01*
X235375Y257424D01*
X235388Y257398D01*
X235399Y257371D01*
X235413Y257349D01*
X235424Y257326D01*
X235441Y257302D01*
X235457Y257277D01*
X235473Y257258D01*
X235489Y257236D01*
X236589Y255937D01*
X236609Y255916D01*
X236628Y255893D01*
X236648Y255877D01*
X236666Y255858D01*
X236690Y255841D01*
X236712Y255822D01*
X236734Y255808D01*
X236755Y255793D01*
X236781Y255780D01*
X236806Y255764D01*
X236830Y255755D01*
X236853Y255742D01*
X236881Y255733D01*
X236908Y255722D01*
X236933Y255716D01*
X236958Y255708D01*
X236986Y255703D01*
X237015Y255697D01*
X237041Y255694D01*
X237066Y255690D01*
X237095Y255690D01*
X237125Y255688D01*
X238025D01*
X238135Y255697D01*
X238242Y255722D01*
X238344Y255764D01*
X238437Y255822D01*
X238521Y255893D01*
X238593Y255977D01*
X238650Y256071D01*
X238692Y256173D01*
X238718Y256280D01*
X238727Y256390D01*
Y259990D01*
X238718Y260100D01*
X238692Y260207D01*
X238650Y260309D01*
X238593Y260403D01*
X238521Y260487D01*
X238437Y260558D01*
X238344Y260616D01*
X238242Y260658D01*
X238135Y260683D01*
X238025Y260692D01*
X236025D01*
X235915Y260683D01*
D02*
G37*
D18*
X237025Y241590D02*
D03*
X245015Y241510D02*
D03*
X249265Y244190D02*
D03*
X249475Y256190D02*
D03*
X245025Y258930D02*
D03*
X237025D02*
D03*
X232575Y256190D02*
D03*
X232525Y244180D02*
D03*
D24*
X474540Y131445D02*
D03*
X474705Y368465D02*
D03*
X25356Y144780D02*
D03*
Y356235D02*
D03*
D25*
X474540Y175260D02*
D03*
Y87630D02*
D03*
X474705Y412280D02*
D03*
Y324650D02*
D03*
X25356Y100965D02*
D03*
Y188595D02*
D03*
Y312420D02*
D03*
Y400050D02*
D03*
D26*
X236580Y25790D02*
D03*
Y474980D02*
D03*
D27*
X280395Y25790D02*
D03*
X192765D02*
D03*
Y474980D02*
D03*
X280395D02*
D03*
D28*
X241025Y250190D02*
D03*
D29*
Y258190D02*
D03*
Y242190D02*
D03*
D30*
X233325Y248190D02*
D03*
Y252190D02*
D03*
X248715Y248190D02*
D03*
Y252190D02*
D03*
D31*
X236999Y81810D02*
D03*
Y95990D02*
D03*
X237025Y419310D02*
D03*
Y405130D02*
D03*
X362945Y454130D02*
D03*
Y439950D02*
D03*
D32*
X69575Y144780D02*
D03*
X83755D02*
D03*
X412265Y368300D02*
D03*
X426445D02*
D03*
X411735Y131676D02*
D03*
X425915D02*
D03*
X70105Y356870D02*
D03*
X84285D02*
D03*
D33*
X387075Y31910D02*
D03*
Y51910D02*
D03*
X392155Y439740D02*
D03*
Y459740D02*
D03*
D34*
X221975Y272600D02*
D03*
D35*
X473666Y27940D02*
D03*
X27896D02*
D03*
X27665Y469900D02*
D03*
X473435D02*
D03*
M02*
